<?xml version="1.0" encoding="UTF-8" standalone="no"?>
<svg width="12px" height="16px" viewBox="0 0 12 16" version="1.1" xmlns="http://www.w3.org/2000/svg" xmlns:xlink="http://www.w3.org/1999/xlink" xmlns:sketch="http://www.bohemiancoding.com/sketch/ns">
    <!-- Generator: Sketch 3.5 (25232) - http://www.bohemiancoding.com/sketch -->
    <title></title>
    <desc>Created with Sketch.</desc>
    <defs></defs>
    <g id="Updated-HP" stroke="none" stroke-width="1" fill="none" fill-rule="evenodd" sketch:type="MSPage">
        <g id="Home-Page" sketch:type="MSArtboardGroup" transform="translate(-181.000000, -1799.000000)" fill="#54914F">
            <g id="resource-1" sketch:type="MSLayerGroup" transform="translate(165.000000, 1782.000000)">
                <path d="M18.78125,19.03125 C19.0729181,18.7395819 19.4270813,18.59375 19.84375,18.59375 C20.2604187,18.59375 20.6145819,18.7395819 20.90625,19.03125 L26.25,24.40625 C26.5625016,23.2812444 26.3125041,22.3125041 25.5,21.5 L21.96875,17.96875 C21.3854137,17.3854137 20.6770875,17.09375 19.84375,17.09375 C19.0104125,17.09375 18.3020863,17.3854137 17.71875,17.96875 L16.9375,18.75 C16.3333303,19.3541697 16.03125,20.0677042 16.03125,20.890625 C16.03125,21.7135458 16.3333303,22.4166637 16.9375,23 L20.46875,26.53125 C21.2604206,27.3437541 22.2187444,27.6041681 23.34375,27.3125 L17.96875,21.9375 C17.6770819,21.6458319 17.53125,21.2916687 17.53125,20.875 C17.53125,20.4583313 17.6770819,20.1041681 17.96875,19.8125 L18.78125,19.03125 Z M22.03125,32.03125 C22.6145863,32.6145863 23.3229125,32.90625 24.15625,32.90625 C24.9895875,32.90625 25.6979138,32.6145863 26.28125,32.03125 L27.0625,31.25 C27.6666697,30.6458303 27.96875,29.9322958 27.96875,29.109375 C27.96875,28.2864542 27.6666697,27.5833363 27.0625,27 L23.53125,23.46875 C22.7395794,22.6562459 21.7812556,22.3958319 20.65625,22.6875 L26.03125,28.0625 C26.3229181,28.3541681 26.46875,28.7083313 26.46875,29.125 C26.46875,29.5416687 26.3229181,29.8958319 26.03125,30.1875 L25.21875,30.96875 C24.9270819,31.2604181 24.5729187,31.40625 24.15625,31.40625 C23.7395813,31.40625 23.3854181,31.2604181 23.09375,30.96875 L17.75,25.59375 C17.4374984,26.7187556 17.6874959,27.6874959 18.5,28.5 L22.03125,32.03125 Z" id="" sketch:type="MSShapeGroup"></path>
            </g>
        </g>
    </g>
</svg>