<?xml version="1.0" encoding="utf-8"?>
<!-- Generator: Adobe Illustrator 19.2.0, SVG Export Plug-In . SVG Version: 6.00 Build 0)  -->
<svg version="1.1" id="Layer_1" xmlns="http://www.w3.org/2000/svg" xmlns:xlink="http://www.w3.org/1999/xlink" x="0px" y="0px"
	 viewBox="0 0 289.6 50" style="enable-background:new 0 0 289.6 50;" xml:space="preserve">
<style type="text/css">
	.st0{fill:#559150;}
	.st1{fill:#FFFFFF;}
	.st2{fill:none;stroke:#FFFFFF;stroke-width:1.43;stroke-miterlimit:10;}
	.st3{fill:none;stroke:#FFFFFF;stroke-width:1.3;stroke-miterlimit:10;}
	.st4{fill:none;stroke:#FFFFFF;stroke-width:1.18;stroke-miterlimit:10;}
	.st5{fill:#404A57;}
</style>
<title>wpscale_logo</title>
<circle class="st0" cx="25" cy="25" r="25"/>
<rect x="13.5" y="13" class="st1" width="8.8" height="8.8"/>
<rect x="27.8" y="13" class="st1" width="8.8" height="8.8"/>
<rect x="13.5" y="28.2" class="st1" width="8.8" height="8.8"/>
<rect x="27.8" y="28.2" class="st1" width="8.8" height="8.8"/>
<line class="st2" x1="20.5" y1="17.4" x2="28.8" y2="17.4"/>
<line class="st3" x1="17.9" y1="21.8" x2="17.9" y2="29.4"/>
<line class="st3" x1="22.1" y1="32.6" x2="28.9" y2="32.6"/>
<line class="st4" x1="21.6" y1="28.7" x2="28.9" y2="21"/>
<path class="st5" d="M73.5,18.2h3l1.9,5.6l1.9-5.6h3.1L80.5,26l2.2,5.4l4.9-13.2h3.6l-6.9,17h-2.8l-3-7.1l-3,7.1h-2.8l-6.8-17h3.6
	l4.9,13.2l2.1-5.4L73.5,18.2z"/>
<path class="st5" d="M96.9,35.5c-0.9,0-1.9-0.2-2.8-0.5c-0.8-0.3-1.5-0.8-2.1-1.4c-0.6-0.6-1-1.3-1.3-2.1c-0.6-1.6-0.6-3.4,0-5
	c0.3-0.8,0.7-1.5,1.3-2.1c0.6-0.6,1.3-1.1,2.1-1.4c0.9-0.4,1.8-0.5,2.8-0.5c0.9,0,1.9,0.2,2.8,0.5c0.8,0.3,1.5,0.8,2.1,1.4
	c0.6,0.6,1,1.3,1.3,2.1c0.6,1.6,0.6,3.4,0,5c-0.3,0.8-0.7,1.5-1.3,2.1c-0.6,0.6-1.3,1.1-2.1,1.4C98.8,35.3,97.8,35.5,96.9,35.5z
	 M93.6,29c0,0.5,0.1,1,0.2,1.5c0.2,0.4,0.4,0.8,0.7,1.2c0.3,0.3,0.6,0.6,1,0.8c0.8,0.4,1.8,0.4,2.6,0c0.4-0.2,0.7-0.5,1-0.8
	c0.3-0.4,0.5-0.8,0.7-1.2c0.2-0.5,0.3-1,0.2-1.5c0-0.5-0.1-1-0.2-1.5c-0.2-0.4-0.4-0.8-0.7-1.2c-0.3-0.3-0.6-0.6-1-0.8
	c-0.4-0.2-0.9-0.3-1.3-0.3c-0.4,0-0.9,0.1-1.3,0.3c-0.4,0.2-0.7,0.5-1,0.8c-0.3,0.4-0.5,0.8-0.7,1.2C93.7,28,93.6,28.5,93.6,29
	L93.6,29z"/>
<path class="st5" d="M113.1,25.5c-0.9,0-1.8,0.2-2.6,0.6c-0.7,0.3-1.3,0.9-1.7,1.6v7.6h-3.2V22.7h3v2.7c0.4-0.8,1-1.5,1.7-2.1
	c0.6-0.5,1.4-0.8,2.2-0.8h0.4h0.2L113.1,25.5L113.1,25.5z"/>
<path class="st5" d="M119.8,35.5c-1.6,0-3.2-0.7-4.3-1.9c-0.5-0.6-1-1.3-1.2-2.1c-0.3-0.8-0.4-1.7-0.4-2.6c0-0.9,0.1-1.7,0.4-2.5
	c0.3-0.8,0.7-1.4,1.2-2.1c0.5-0.6,1.1-1.1,1.8-1.4c0.7-0.3,1.5-0.5,2.3-0.5c0.9,0,1.7,0.2,2.5,0.7c0.7,0.4,1.3,1,1.7,1.8v-7.1h3.2
	v13.8c0,0.3,0,0.5,0.2,0.7c0.2,0.2,0.4,0.3,0.7,0.2v2.7c-0.5,0.1-1,0.2-1.5,0.2c-0.5,0-1-0.1-1.4-0.4c-0.3-0.3-0.6-0.7-0.6-1.1
	l-0.1-0.9c-0.4,0.8-1.1,1.4-1.9,1.8C121.5,35.3,120.7,35.5,119.8,35.5z M120.6,32.8c0.3,0,0.6-0.1,0.9-0.2c0.3-0.1,0.6-0.2,0.9-0.4
	c0.3-0.2,0.5-0.4,0.7-0.7c0.2-0.2,0.4-0.5,0.5-0.8v-3c-0.3-0.7-0.7-1.3-1.3-1.8c-0.5-0.4-1.2-0.7-1.9-0.7c-0.5,0-0.9,0.1-1.3,0.3
	c-0.4,0.2-0.7,0.5-1,0.9c-0.3,0.4-0.5,0.8-0.7,1.2c-0.2,0.5-0.2,0.9-0.2,1.4c0,0.5,0.1,1,0.3,1.5c0.2,0.4,0.4,0.8,0.7,1.2
	c0.3,0.3,0.7,0.6,1.1,0.8C119.7,32.6,120.2,32.7,120.6,32.8z"/>
<path class="st5" d="M130.5,35.2v-17h7.2c0.8,0,1.5,0.2,2.2,0.5c0.7,0.3,1.2,0.8,1.7,1.3c0.5,0.5,0.9,1.2,1.1,1.8
	c0.3,0.7,0.4,1.3,0.4,2.1c0,0.7-0.1,1.4-0.4,2.1c-0.2,0.7-0.6,1.3-1.1,1.8c-0.5,0.5-1,1-1.7,1.3c-0.7,0.3-1.4,0.5-2.2,0.5h-4v5.7
	H130.5L130.5,35.2z M133.8,26.6h3.8c0.6,0,1.2-0.3,1.5-0.7c0.4-0.6,0.6-1.3,0.6-2c0-0.4-0.1-0.8-0.2-1.2c-0.1-0.3-0.3-0.6-0.5-0.9
	c-0.2-0.2-0.4-0.4-0.7-0.5c-0.3-0.1-0.6-0.2-0.9-0.2h-3.7L133.8,26.6L133.8,26.6z"/>
<path class="st5" d="M152.6,25.5c-0.9,0-1.8,0.2-2.6,0.6c-0.7,0.3-1.3,0.9-1.7,1.6v7.6h-3.2V22.7h3v2.7c0.4-0.8,1-1.5,1.7-2.1
	c0.6-0.5,1.4-0.8,2.2-0.8h0.4h0.2L152.6,25.5L152.6,25.5z"/>
<path class="st5" d="M160.2,35.5c-0.9,0-1.9-0.2-2.7-0.5c-1.6-0.6-2.8-1.9-3.4-3.5c-0.3-0.8-0.5-1.6-0.5-2.5c0-0.9,0.2-1.7,0.5-2.5
	c0.3-0.8,0.7-1.5,1.3-2.1c0.6-0.6,1.3-1.1,2.1-1.4c0.9-0.4,1.8-0.5,2.8-0.5c0.9,0,1.9,0.2,2.8,0.5c0.8,0.3,1.5,0.8,2.1,1.4
	c0.6,0.6,1,1.3,1.3,2.1c0.3,0.8,0.4,1.6,0.4,2.4c0,0.2,0,0.4,0,0.6c0,0.2,0,0.3-0.1,0.5H157c0,0.5,0.2,0.9,0.4,1.3
	c0.4,0.7,1,1.3,1.8,1.6c0.4,0.1,0.8,0.2,1.2,0.2c0.6,0,1.3-0.2,1.8-0.5c0.5-0.3,0.9-0.7,1.2-1.2l2.8,0.8c-0.5,1-1.3,1.8-2.2,2.4
	C162.7,35.2,161.5,35.5,160.2,35.5z M163.5,27.9c0-0.9-0.4-1.7-1-2.3c-1.3-1.2-3.2-1.2-4.5,0c-0.3,0.3-0.5,0.6-0.7,1
	c-0.2,0.4-0.3,0.8-0.3,1.3H163.5L163.5,27.9z"/>
<path class="st5" d="M173.7,35.5c-0.5,0-1.1,0-1.6-0.1c-0.5-0.1-1.1-0.2-1.6-0.3c-0.5-0.1-1-0.3-1.5-0.5c-0.4-0.2-0.9-0.4-1.3-0.7
	l1.3-2.2c1.4,1,3,1.5,4.6,1.6c0.5,0,1.1-0.1,1.6-0.4c0.4-0.2,0.6-0.6,0.6-1c0-0.4-0.3-0.8-0.7-1c-0.7-0.3-1.5-0.5-2.3-0.7
	c-0.7-0.2-1.4-0.4-2.1-0.6c-0.5-0.2-1-0.4-1.4-0.7c-0.3-0.2-0.6-0.6-0.8-0.9c-0.2-0.4-0.3-0.8-0.2-1.2c0-1.2,0.5-2.3,1.5-3
	c0.5-0.4,1-0.7,1.6-0.8c0.6-0.2,1.3-0.3,2-0.3c0.9,0,1.8,0.1,2.7,0.4c0.9,0.3,1.7,0.7,2.5,1.1l-1.3,2c-0.6-0.4-1.3-0.8-2-1
	c-0.6-0.2-1.2-0.3-1.9-0.3c-0.5,0-1,0.1-1.5,0.3c-0.4,0.2-0.6,0.6-0.6,1.1c0,0.4,0.2,0.8,0.6,0.9c0.6,0.3,1.3,0.5,2,0.6
	c0.9,0.2,1.7,0.4,2.3,0.7c0.6,0.2,1.1,0.4,1.6,0.8c0.4,0.3,0.7,0.6,0.9,1c0.2,0.4,0.3,0.9,0.3,1.4c0,0.6-0.1,1.1-0.4,1.7
	c-0.2,0.5-0.6,0.9-1,1.3c-0.5,0.4-1.1,0.6-1.7,0.8C175.2,35.4,174.4,35.5,173.7,35.5z"/>
<path class="st5" d="M185.9,35.5c-0.5,0-1.1,0-1.6-0.1c-0.5-0.1-1.1-0.2-1.6-0.3c-0.5-0.1-1-0.3-1.5-0.5c-0.4-0.2-0.9-0.4-1.3-0.7
	l1.3-2.2c1.4,1,3,1.5,4.6,1.6c0.5,0,1.1-0.1,1.6-0.4c0.4-0.2,0.6-0.6,0.6-1c0-0.4-0.3-0.8-0.7-1c-0.7-0.3-1.5-0.5-2.3-0.7
	c-0.7-0.2-1.4-0.4-2.1-0.6c-0.5-0.2-1-0.4-1.4-0.7c-0.3-0.2-0.6-0.6-0.8-0.9c-0.2-0.4-0.3-0.8-0.2-1.2c0-1.2,0.5-2.3,1.5-3
	c0.5-0.4,1-0.7,1.6-0.8c0.6-0.2,1.3-0.3,2-0.3c0.9,0,1.8,0.1,2.7,0.4c0.9,0.3,1.7,0.7,2.5,1.1l-1.3,2c-0.6-0.4-1.3-0.8-2-1
	c-0.6-0.2-1.2-0.3-1.9-0.3c-0.5,0-1,0.1-1.5,0.3c-0.4,0.2-0.6,0.6-0.6,1.1c0,0.4,0.2,0.8,0.6,0.9c0.6,0.3,1.3,0.5,2,0.6
	c0.9,0.2,1.7,0.4,2.3,0.7c0.6,0.2,1.1,0.4,1.6,0.8c0.4,0.3,0.7,0.6,0.9,1c0.2,0.4,0.3,0.9,0.3,1.4c0,0.6-0.1,1.1-0.4,1.7
	c-0.2,0.5-0.6,0.9-1,1.3c-0.5,0.4-1,0.6-1.6,0.8C187.3,35.4,186.6,35.5,185.9,35.5z"/>
<path class="st0" d="M202.3,35.5c-0.6,0-1.2-0.1-1.7-0.3c-0.5-0.2-1-0.5-1.4-0.8c-0.4-0.4-0.7-0.8-0.9-1.3c-0.2-0.5-0.3-1-0.3-1.6
	c0-0.6,0.1-1.1,0.4-1.6c0.3-0.5,0.6-0.9,1.1-1.3c0.5-0.4,1.1-0.7,1.7-0.8c0.7-0.2,1.4-0.3,2.2-0.3c0.5,0,1.1,0,1.6,0.1
	c0.5,0.1,1,0.2,1.4,0.4v-0.8c0-0.7-0.2-1.4-0.7-1.9c-0.6-0.5-1.3-0.7-2.1-0.7c-0.7,0-1.4,0.1-2,0.4c-0.7,0.3-1.4,0.6-2,1.1l-1-2
	c1.5-1.1,3.4-1.6,5.2-1.6c1.5-0.1,3,0.4,4.2,1.3c1,1,1.6,2.4,1.5,3.9v3.9c0,0.3,0,0.5,0.2,0.7c0.2,0.2,0.4,0.3,0.7,0.2v2.7
	c-0.3,0.1-0.6,0.1-0.9,0.1c-0.3,0-0.5,0-0.7,0c-0.5,0-1-0.1-1.4-0.4c-0.3-0.3-0.5-0.7-0.6-1.1l0-0.6c-0.5,0.7-1.2,1.3-2,1.7
	C204.1,35.3,203.2,35.5,202.3,35.5z M203.2,33.1c0.5,0,1.1-0.1,1.5-0.3c0.4-0.2,0.8-0.4,1.1-0.8c0.3-0.2,0.5-0.5,0.5-0.9v-1.4
	c-0.4-0.2-0.8-0.3-1.2-0.4c-0.4-0.1-0.9-0.1-1.3-0.1c-0.7,0-1.4,0.2-2,0.6c-0.5,0.3-0.8,0.8-0.8,1.4c0,0.5,0.2,1,0.6,1.4
	C202.1,33,202.7,33.2,203.2,33.1z"/>
<path class="st0" d="M220.1,34.6c-0.5,0.2-1.1,0.4-1.6,0.6c-0.6,0.2-1.3,0.3-2,0.3c-0.4,0-0.9-0.1-1.3-0.2c-0.4-0.1-0.7-0.3-1-0.5
	c-0.3-0.3-0.6-0.6-0.7-1c-0.2-0.5-0.3-0.9-0.3-1.4v-7.2h-1.6v-2.5h1.6v-4.1h3.2v4.1h2.7v2.5h-2.7v6.1c0,0.4,0.1,0.7,0.4,0.9
	c0.2,0.2,0.6,0.3,0.9,0.3c0.3,0,0.7-0.1,1-0.2l0.8-0.3L220.1,34.6z"/>
<path class="st0" d="M237.9,22.7c-0.2-0.2-0.4-0.3-0.6-0.5c-0.3-0.2-0.7-0.4-1.1-0.6c-0.4-0.2-0.9-0.3-1.4-0.5
	c-0.5-0.1-1-0.2-1.5-0.2c-0.7,0-1.4,0.1-2,0.5c-0.4,0.3-0.7,0.9-0.7,1.4c0,0.3,0.1,0.6,0.2,0.9c0.2,0.3,0.4,0.5,0.7,0.6
	c0.4,0.2,0.8,0.4,1.2,0.5c0.5,0.1,1,0.3,1.7,0.5c0.8,0.2,1.6,0.5,2.3,0.7c0.6,0.2,1.2,0.6,1.7,1c0.5,0.4,0.8,0.8,1.1,1.4
	c0.3,0.6,0.4,1.3,0.4,2c0,0.8-0.2,1.6-0.5,2.3c-0.3,0.6-0.8,1.2-1.4,1.6c-0.6,0.4-1.3,0.7-2,0.9c-0.8,0.2-1.6,0.3-2.4,0.3
	c-1.3,0-2.6-0.2-3.8-0.6c-1.2-0.4-2.3-0.9-3.4-1.6l1.5-2.9c0.2,0.2,0.5,0.4,0.8,0.6c0.4,0.3,0.9,0.5,1.3,0.7
	c0.5,0.2,1.1,0.4,1.7,0.6c0.6,0.2,1.3,0.2,1.9,0.2c1.8,0,2.7-0.6,2.7-1.8c0-0.4-0.1-0.7-0.3-1c-0.2-0.3-0.5-0.5-0.9-0.7
	c-0.4-0.2-0.9-0.4-1.4-0.5l-1.8-0.5c-0.7-0.2-1.4-0.4-2.1-0.7c-0.5-0.2-1.1-0.5-1.5-0.9c-0.4-0.3-0.7-0.8-0.9-1.2
	c-0.2-0.5-0.3-1.1-0.3-1.7c0-0.8,0.1-1.6,0.5-2.3c0.3-0.7,0.8-1.2,1.3-1.7c0.6-0.5,1.3-0.8,2-1c0.8-0.2,1.6-0.4,2.4-0.4
	c1.1,0,2.2,0.2,3.3,0.6c0.9,0.3,1.8,0.8,2.6,1.3L237.9,22.7z"/>
<path class="st0" d="M241.4,29c0-0.9,0.2-1.7,0.5-2.5c0.3-0.8,0.7-1.5,1.3-2.1c0.6-0.6,1.3-1.1,2.1-1.4c0.9-0.4,1.8-0.5,2.8-0.5
	c1.2,0,2.5,0.3,3.5,0.9c0.9,0.6,1.7,1.4,2.2,2.3l-3.1,1c-0.3-0.4-0.6-0.8-1.1-1.1c-0.5-0.3-1-0.4-1.5-0.4c-0.4,0-0.9,0.1-1.3,0.3
	c-0.4,0.2-0.7,0.4-1,0.8c-0.3,0.3-0.5,0.8-0.7,1.2c-0.2,0.5-0.3,1-0.2,1.5c0,0.5,0.1,1,0.3,1.5c0.2,0.4,0.4,0.8,0.7,1.2
	c0.3,0.3,0.6,0.6,1,0.8c0.4,0.2,0.8,0.3,1.3,0.3c0.6,0,1.1-0.1,1.6-0.4c0.4-0.2,0.8-0.6,1-1.1l3.1,1c-0.5,1-1.2,1.8-2.1,2.4
	c-1.1,0.6-2.3,0.9-3.6,0.9c-0.9,0-1.9-0.2-2.8-0.5c-1.6-0.7-2.8-2-3.4-3.6C241.6,30.7,241.4,29.8,241.4,29z"/>
<path class="st0" d="M259.2,35.5c-0.6,0-1.2-0.1-1.7-0.3c-0.5-0.2-1-0.5-1.4-0.8c-0.4-0.4-0.7-0.8-0.9-1.3c-0.2-0.5-0.3-1-0.3-1.6
	c0-0.6,0.1-1.1,0.4-1.6c0.3-0.5,0.6-0.9,1.1-1.3c0.5-0.4,1.1-0.7,1.7-0.8c0.7-0.2,1.4-0.3,2.2-0.3c0.5,0,1.1,0,1.6,0.1
	c0.5,0.1,1,0.2,1.4,0.4v-0.8c0-0.7-0.2-1.4-0.7-1.9c-0.6-0.5-1.3-0.7-2.1-0.7c-0.7,0-1.4,0.1-2,0.4c-0.7,0.3-1.4,0.6-2,1.1l-1-2
	c1.5-1.1,3.4-1.6,5.2-1.6c1.5-0.1,3,0.4,4.2,1.3c1,1,1.6,2.4,1.5,3.9v3.9c0,0.3,0,0.5,0.2,0.7c0.2,0.2,0.4,0.3,0.7,0.2v2.7
	c-0.3,0.1-0.6,0.1-0.9,0.1c-0.3,0-0.5,0-0.7,0c-0.5,0-1-0.1-1.4-0.4c-0.3-0.3-0.5-0.7-0.6-1.1l-0.1-0.7c-0.5,0.7-1.2,1.3-2,1.7
	C260.9,35.3,260.1,35.5,259.2,35.5z M260.1,33.1c0.5,0,1.1-0.1,1.5-0.3c0.4-0.2,0.8-0.4,1.1-0.8c0.3-0.2,0.5-0.5,0.5-0.9v-1.4
	c-0.4-0.2-0.8-0.3-1.2-0.4c-0.4-0.1-0.9-0.1-1.3-0.1c-0.7,0-1.4,0.2-2,0.6c-0.5,0.3-0.8,0.8-0.8,1.4c0,0.5,0.2,1,0.6,1.4
	C259,33,259.6,33.1,260.1,33.1z"/>
<path class="st0" d="M269.6,17.7h3.2v13.3c-0.1,0.7,0.3,1.3,1,1.4c0.1,0,0.2,0,0.3,0c0.2,0,0.4,0,0.6-0.1c0.2-0.1,0.5-0.1,0.7-0.2
	l0.4,2.6c-0.5,0.2-1,0.4-1.5,0.5c-0.5,0.1-1,0.2-1.6,0.2c-0.9,0.1-1.7-0.2-2.3-0.8c-0.6-0.6-0.9-1.4-0.8-2.3V17.7z"/>
<path class="st0" d="M283.1,35.5c-0.9,0-1.9-0.2-2.7-0.5c-1.6-0.6-2.8-1.9-3.4-3.5c-0.3-0.8-0.5-1.6-0.5-2.5c0-0.9,0.2-1.7,0.5-2.5
	c0.3-0.8,0.7-1.5,1.3-2.1c0.6-0.6,1.3-1.1,2.1-1.4c0.9-0.4,1.8-0.5,2.8-0.5c0.9,0,1.9,0.2,2.8,0.5c0.8,0.3,1.5,0.8,2.1,1.4
	c0.6,0.6,1,1.3,1.3,2.1c0.3,0.8,0.4,1.6,0.4,2.4c0,0.2,0,0.4,0,0.6c0,0.2,0,0.3-0.1,0.5h-9.7c0,0.5,0.2,0.9,0.4,1.3
	c0.4,0.7,1,1.3,1.8,1.6c0.4,0.1,0.8,0.2,1.2,0.2c0.6,0,1.3-0.2,1.8-0.5c0.5-0.3,0.9-0.7,1.2-1.2l2.8,0.8c-0.5,1-1.3,1.8-2.2,2.4
	C285.6,35.2,284.3,35.5,283.1,35.5z M286.3,27.9c0-0.9-0.4-1.7-1-2.3c-0.9-0.8-2.3-1.1-3.5-0.6c-0.4,0.1-0.7,0.4-1,0.6
	c-0.3,0.3-0.5,0.6-0.7,1c-0.2,0.4-0.3,0.8-0.3,1.3L286.3,27.9L286.3,27.9z"/>
</svg>
